# xmcd
#
# Track frame offsets:
# 150
# 12090
# 24482
# 38077
# 53062
# 66927
# 80552
# 93662
# 106667
# 121400
# 135562
# 148855
# 161492
# 174750
# 187905
# 200462
# 212797
# 228000
# 243012
# 256130
# 269640
# 283290
# 297110
# 310860
#
# Disc length: 4310 seconds
#
# Revision: 0
# Processed by: cddbd v1.4PL0 Copyright (c) Steve Scherf et al.
# Submitted via: MacMP3 Pro 5.0 (http://mp3.act2.co.jp/)
#
DISCID=4c10d418
DTITLE=Big Bill Broonzy - Big Bill's Stomp
DYEAR=1900
DGENRE=
TTITLE0=House Rent Stomp
TTITLE1=Police Station Blues
TTITLE2=Mistreatin' Mamma
TTITLE3=Good Jelly
TTITLE4=You May Need My Help Someday
TTITLE5=I'm Just A Bum
TTITLE6=Keep Your Hands Off Her
TTITLE7=You Know I Got A Reason
TTITLE8=Cherry Hill
TTITLE9=Little Bug
TTITLE10=Living On Easy Street
TTITLE11=Cotton Choppin' Blues
TTITLE12=Jivin' Mr. Fuller Blues
TTITLE13=When I Had Money
TTITLE14=Leap Year Blues
TTITLE15=Midnight Steppers
TTITLE16=Romance In The Dark (with Lil Green)
TTITLE17=Just Rockin' (wuth Lil Green)
TTITLE18=My Gal Is Gone
TTITLE19=Shine On, Shine On
TTITLE20=Sweet Honey Bee
TTITLE21=Key To The Highway
TTITLE22=You Drink Too Much Whiskey (with Jazz Gillum)
TTITLE23=I Feel So Good
EXTD=
EXTT0=
EXTT1=
EXTT2=
EXTT3=
EXTT4=
EXTT5=
EXTT6=
EXTT7=
EXTT8=
EXTT9=
EXTT10=
EXTT11=
EXTT12=
EXTT13=
EXTT14=
EXTT15=
EXTT16=
EXTT17=
EXTT18=
EXTT19=
EXTT20=
EXTT21=
EXTT22=
EXTT23=
PLAYORDER=
